<svg xmlns="http://www.w3.org/2000/svg" xmlns:xlink="http://www.w3.org/1999/xlink" width="1400" zoomAndPan="magnify" viewBox="0 0 1050 449.999984" height="600" preserveAspectRatio="xMidYMid meet" version="1.0"><defs><filter x="0%" y="0%" width="100%" height="100%" id="df3a8aa731"><feColorMatrix values="0 0 0 0 1 0 0 0 0 1 0 0 0 0 1 0 0 0 1 0" color-interpolation-filters="sRGB"/></filter><g/><clipPath id="8a48fcbee8"><path d="M 0 0 L 1050 0 L 1050 450 L 0 450 Z M 0 0 " clip-rule="nonzero"/></clipPath><linearGradient x1="68.753521" gradientTransform="matrix(1.288377, 0, 0, 1.288193, 58.83517, 7.216171)" y1="458.144483" x2="650.906319" gradientUnits="userSpaceOnUse" y2="-124.008342" id="cd6f2b9523"><stop stop-opacity="1" stop-color="rgb(100%, 47.839355%, 23.529053%)" offset="0"/><stop stop-opacity="1" stop-color="rgb(100%, 47.839355%, 23.529053%)" offset="0.0625"/><stop stop-opacity="1" stop-color="rgb(100%, 47.987366%, 23.651123%)" offset="0.09375"/><stop stop-opacity="1" stop-color="rgb(100%, 48.291016%, 23.901367%)" offset="0.101562"/><stop stop-opacity="1" stop-color="rgb(100%, 48.600769%, 24.154663%)" offset="0.109375"/><stop stop-opacity="1" stop-color="rgb(100%, 48.908997%, 24.407959%)" offset="0.117187"/><stop stop-opacity="1" stop-color="rgb(100%, 49.21875%, 24.662781%)" offset="0.125"/><stop stop-opacity="1" stop-color="rgb(100%, 49.526978%, 24.916077%)" offset="0.132812"/><stop stop-opacity="1" stop-color="rgb(100%, 49.836731%, 25.169373%)" offset="0.140625"/><stop stop-opacity="1" stop-color="rgb(100%, 50.144958%, 25.424194%)" offset="0.148437"/><stop stop-opacity="1" stop-color="rgb(100%, 50.454712%, 25.67749%)" offset="0.15625"/><stop stop-opacity="1" stop-color="rgb(100%, 50.762939%, 25.930786%)" offset="0.164062"/><stop stop-opacity="1" stop-color="rgb(100%, 51.072693%, 26.185608%)" offset="0.171875"/><stop stop-opacity="1" stop-color="rgb(100%, 51.38092%, 26.438904%)" offset="0.179687"/><stop stop-opacity="1" stop-color="rgb(100%, 51.690674%, 26.6922%)" offset="0.1875"/><stop stop-opacity="1" stop-color="rgb(100%, 51.998901%, 26.947021%)" offset="0.195312"/><stop stop-opacity="1" stop-color="rgb(100%, 52.307129%, 27.200317%)" offset="0.203125"/><stop stop-opacity="1" stop-color="rgb(100%, 52.616882%, 27.453613%)" offset="0.210937"/><stop stop-opacity="1" stop-color="rgb(100%, 52.92511%, 27.708435%)" offset="0.21875"/><stop stop-opacity="1" stop-color="rgb(100%, 53.234863%, 27.961731%)" offset="0.226562"/><stop stop-opacity="1" stop-color="rgb(100%, 53.543091%, 28.215027%)" offset="0.234375"/><stop stop-opacity="1" stop-color="rgb(100%, 53.852844%, 28.469849%)" offset="0.242187"/><stop stop-opacity="1" stop-color="rgb(100%, 54.161072%, 28.723145%)" offset="0.25"/><stop stop-opacity="1" stop-color="rgb(100%, 54.470825%, 28.97644%)" offset="0.257812"/><stop stop-opacity="1" stop-color="rgb(100%, 54.779053%, 29.231262%)" offset="0.265625"/><stop stop-opacity="1" stop-color="rgb(100%, 55.088806%, 29.484558%)" offset="0.273437"/><stop stop-opacity="1" stop-color="rgb(100%, 55.397034%, 29.737854%)" offset="0.28125"/><stop stop-opacity="1" stop-color="rgb(100%, 55.706787%, 29.992676%)" offset="0.289062"/><stop stop-opacity="1" stop-color="rgb(100%, 56.015015%, 30.245972%)" offset="0.296875"/><stop stop-opacity="1" stop-color="rgb(100%, 56.324768%, 30.499268%)" offset="0.30003"/><stop stop-opacity="1" stop-color="rgb(100%, 56.478882%, 30.627441%)" offset="0.304687"/><stop stop-opacity="1" stop-color="rgb(100%, 56.632996%, 30.754089%)" offset="0.3125"/><stop stop-opacity="1" stop-color="rgb(100%, 56.942749%, 31.007385%)" offset="0.320312"/><stop stop-opacity="1" stop-color="rgb(100%, 57.250977%, 31.260681%)" offset="0.328125"/><stop stop-opacity="1" stop-color="rgb(100%, 57.56073%, 31.515503%)" offset="0.335937"/><stop stop-opacity="1" stop-color="rgb(100%, 57.868958%, 31.768799%)" offset="0.34375"/><stop stop-opacity="1" stop-color="rgb(100%, 58.177185%, 32.022095%)" offset="0.351562"/><stop stop-opacity="1" stop-color="rgb(100%, 58.486938%, 32.276917%)" offset="0.359375"/><stop stop-opacity="1" stop-color="rgb(100%, 58.795166%, 32.530212%)" offset="0.367187"/><stop stop-opacity="1" stop-color="rgb(100%, 59.104919%, 32.783508%)" offset="0.375"/><stop stop-opacity="1" stop-color="rgb(100%, 59.413147%, 33.03833%)" offset="0.382812"/><stop stop-opacity="1" stop-color="rgb(100%, 59.7229%, 33.291626%)" offset="0.390625"/><stop stop-opacity="1" stop-color="rgb(100%, 60.031128%, 33.544922%)" offset="0.398437"/><stop stop-opacity="1" stop-color="rgb(100%, 60.340881%, 33.799744%)" offset="0.40625"/><stop stop-opacity="1" stop-color="rgb(100%, 60.649109%, 34.05304%)" offset="0.414062"/><stop stop-opacity="1" stop-color="rgb(100%, 60.958862%, 34.306335%)" offset="0.421875"/><stop stop-opacity="1" stop-color="rgb(100%, 61.26709%, 34.559631%)" offset="0.429687"/><stop stop-opacity="1" stop-color="rgb(100%, 61.576843%, 34.814453%)" offset="0.4375"/><stop stop-opacity="1" stop-color="rgb(100%, 61.885071%, 35.067749%)" offset="0.445312"/><stop stop-opacity="1" stop-color="rgb(100%, 62.194824%, 35.321045%)" offset="0.453125"/><stop stop-opacity="1" stop-color="rgb(100%, 62.503052%, 35.575867%)" offset="0.460938"/><stop stop-opacity="1" stop-color="rgb(100%, 62.812805%, 35.829163%)" offset="0.46875"/><stop stop-opacity="1" stop-color="rgb(100%, 63.121033%, 36.082458%)" offset="0.476562"/><stop stop-opacity="1" stop-color="rgb(100%, 63.42926%, 36.33728%)" offset="0.484375"/><stop stop-opacity="1" stop-color="rgb(100%, 63.739014%, 36.590576%)" offset="0.492187"/><stop stop-opacity="1" stop-color="rgb(100%, 64.047241%, 36.843872%)" offset="0.5"/><stop stop-opacity="1" stop-color="rgb(100%, 64.356995%, 37.098694%)" offset="0.507812"/><stop stop-opacity="1" stop-color="rgb(100%, 64.665222%, 37.35199%)" offset="0.515625"/><stop stop-opacity="1" stop-color="rgb(100%, 64.974976%, 37.605286%)" offset="0.523437"/><stop stop-opacity="1" stop-color="rgb(100%, 65.283203%, 37.860107%)" offset="0.53125"/><stop stop-opacity="1" stop-color="rgb(100%, 65.592957%, 38.113403%)" offset="0.539062"/><stop stop-opacity="1" stop-color="rgb(100%, 65.901184%, 38.366699%)" offset="0.546875"/><stop stop-opacity="1" stop-color="rgb(100%, 66.210938%, 38.621521%)" offset="0.554688"/><stop stop-opacity="1" stop-color="rgb(100%, 66.519165%, 38.874817%)" offset="0.5625"/><stop stop-opacity="1" stop-color="rgb(100%, 66.828918%, 39.128113%)" offset="0.570312"/><stop stop-opacity="1" stop-color="rgb(100%, 67.137146%, 39.382935%)" offset="0.578125"/><stop stop-opacity="1" stop-color="rgb(100%, 67.446899%, 39.63623%)" offset="0.585938"/><stop stop-opacity="1" stop-color="rgb(100%, 67.755127%, 39.889526%)" offset="0.59375"/><stop stop-opacity="1" stop-color="rgb(100%, 68.06488%, 40.144348%)" offset="0.601563"/><stop stop-opacity="1" stop-color="rgb(100%, 68.373108%, 40.397644%)" offset="0.609375"/><stop stop-opacity="1" stop-color="rgb(100%, 68.682861%, 40.65094%)" offset="0.617188"/><stop stop-opacity="1" stop-color="rgb(100%, 68.991089%, 40.905762%)" offset="0.625"/><stop stop-opacity="1" stop-color="rgb(100%, 69.299316%, 41.159058%)" offset="0.632812"/><stop stop-opacity="1" stop-color="rgb(100%, 69.60907%, 41.412354%)" offset="0.640625"/><stop stop-opacity="1" stop-color="rgb(100%, 69.917297%, 41.667175%)" offset="0.648437"/><stop stop-opacity="1" stop-color="rgb(100%, 70.227051%, 41.920471%)" offset="0.65625"/><stop stop-opacity="1" stop-color="rgb(100%, 70.535278%, 42.173767%)" offset="0.664062"/><stop stop-opacity="1" stop-color="rgb(100%, 70.845032%, 42.428589%)" offset="0.671875"/><stop stop-opacity="1" stop-color="rgb(100%, 71.153259%, 42.681885%)" offset="0.679688"/><stop stop-opacity="1" stop-color="rgb(100%, 71.463013%, 42.935181%)" offset="0.6875"/><stop stop-opacity="1" stop-color="rgb(100%, 71.77124%, 43.190002%)" offset="0.695312"/><stop stop-opacity="1" stop-color="rgb(100%, 72.080994%, 43.443298%)" offset="0.69997"/><stop stop-opacity="1" stop-color="rgb(100%, 72.235107%, 43.569946%)" offset="0.703125"/><stop stop-opacity="1" stop-color="rgb(100%, 72.389221%, 43.696594%)" offset="0.710938"/><stop stop-opacity="1" stop-color="rgb(100%, 72.698975%, 43.951416%)" offset="0.71875"/><stop stop-opacity="1" stop-color="rgb(100%, 73.007202%, 44.204712%)" offset="0.726563"/><stop stop-opacity="1" stop-color="rgb(100%, 73.316956%, 44.458008%)" offset="0.734375"/><stop stop-opacity="1" stop-color="rgb(100%, 73.625183%, 44.71283%)" offset="0.742188"/><stop stop-opacity="1" stop-color="rgb(100%, 73.934937%, 44.966125%)" offset="0.75"/><stop stop-opacity="1" stop-color="rgb(100%, 74.243164%, 45.219421%)" offset="0.757812"/><stop stop-opacity="1" stop-color="rgb(100%, 74.551392%, 45.474243%)" offset="0.765625"/><stop stop-opacity="1" stop-color="rgb(100%, 74.861145%, 45.727539%)" offset="0.773437"/><stop stop-opacity="1" stop-color="rgb(100%, 75.169373%, 45.980835%)" offset="0.78125"/><stop stop-opacity="1" stop-color="rgb(100%, 75.479126%, 46.235657%)" offset="0.789062"/><stop stop-opacity="1" stop-color="rgb(100%, 75.787354%, 46.488953%)" offset="0.796875"/><stop stop-opacity="1" stop-color="rgb(100%, 76.097107%, 46.742249%)" offset="0.804688"/><stop stop-opacity="1" stop-color="rgb(100%, 76.405334%, 46.99707%)" offset="0.8125"/><stop stop-opacity="1" stop-color="rgb(100%, 76.715088%, 47.250366%)" offset="0.820312"/><stop stop-opacity="1" stop-color="rgb(100%, 77.023315%, 47.503662%)" offset="0.828125"/><stop stop-opacity="1" stop-color="rgb(100%, 77.333069%, 47.758484%)" offset="0.835938"/><stop stop-opacity="1" stop-color="rgb(100%, 77.641296%, 48.01178%)" offset="0.84375"/><stop stop-opacity="1" stop-color="rgb(100%, 77.95105%, 48.265076%)" offset="0.851563"/><stop stop-opacity="1" stop-color="rgb(100%, 78.259277%, 48.519897%)" offset="0.859375"/><stop stop-opacity="1" stop-color="rgb(100%, 78.569031%, 48.773193%)" offset="0.867188"/><stop stop-opacity="1" stop-color="rgb(100%, 78.877258%, 49.026489%)" offset="0.875"/><stop stop-opacity="1" stop-color="rgb(100%, 79.187012%, 49.281311%)" offset="0.882812"/><stop stop-opacity="1" stop-color="rgb(100%, 79.495239%, 49.534607%)" offset="0.890625"/><stop stop-opacity="1" stop-color="rgb(100%, 79.804993%, 49.787903%)" offset="0.898437"/><stop stop-opacity="1" stop-color="rgb(100%, 80.11322%, 50.042725%)" offset="0.90625"/><stop stop-opacity="1" stop-color="rgb(100%, 80.421448%, 50.296021%)" offset="0.914062"/><stop stop-opacity="1" stop-color="rgb(100%, 80.677795%, 50.505066%)" offset="0.921875"/><stop stop-opacity="1" stop-color="rgb(100%, 80.778503%, 50.588989%)" offset="0.9375"/><stop stop-opacity="1" stop-color="rgb(100%, 80.778503%, 50.588989%)" offset="1"/></linearGradient><clipPath id="6591c6ecd2"><rect x="0" width="1050" y="0" height="450"/></clipPath><clipPath id="ffe7ec6c40"><rect x="0" width="1050" y="0" height="450"/></clipPath><clipPath id="fe38a8b748"><rect x="0" width="1050" y="0" height="450"/></clipPath><mask id="f0c0e4f97a"><g filter="url(#df3a8aa731)"><g transform="matrix(1, 0, 0, 1, 0, 0)"><g clip-path="url(#fe38a8b748)"><g transform="matrix(1, 0, 0, 1, 0, 0)"><g clip-path="url(#ffe7ec6c40)"><g fill="#000000" fill-opacity="1"><g transform="translate(81.225778, 324.771595)"><g><path d="M 172.265625 -224.703125 C 174.609375 -224.703125 176.441406 -224.113281 177.765625 -222.9375 C 179.097656 -221.769531 179.765625 -219.910156 179.765625 -217.359375 C 179.765625 -215.929688 179.378906 -212.75 178.609375 -207.8125 C 177.847656 -202.875 176.804688 -196.679688 175.484375 -189.234375 C 174.160156 -181.796875 172.679688 -173.515625 171.046875 -164.390625 C 169.421875 -155.273438 167.738281 -145.75 166 -135.8125 C 164.269531 -125.875 162.585938 -115.960938 160.953125 -106.078125 C 159.328125 -96.191406 157.851562 -86.789062 156.53125 -77.875 C 155.207031 -68.957031 154.160156 -60.90625 153.390625 -53.71875 C 152.628906 -46.539062 152.25 -40.757812 152.25 -36.375 C 152.25 -32.8125 152.832031 -30.007812 154 -27.96875 C 155.175781 -25.9375 156.679688 -24.921875 158.515625 -24.921875 C 160.554688 -24.921875 162.238281 -25.632812 163.5625 -27.0625 C 164.882812 -28.488281 166.101562 -29.910156 167.21875 -31.328125 C 168.34375 -32.753906 169.566406 -33.46875 170.890625 -33.46875 C 171.398438 -33.46875 171.984375 -33.160156 172.640625 -32.546875 C 173.304688 -31.941406 173.640625 -30.617188 173.640625 -28.578125 C 173.640625 -25.316406 172.875 -21.90625 171.34375 -18.34375 C 169.820312 -14.78125 167.582031 -11.414062 164.625 -8.25 C 161.675781 -5.09375 158.132812 -2.546875 154 -0.609375 C 149.875 1.328125 145.210938 2.296875 140.015625 2.296875 C 135.835938 2.296875 132.09375 1.328125 128.78125 -0.609375 C 125.46875 -2.546875 122.765625 -5.144531 120.671875 -8.40625 C 118.585938 -11.664062 117.289062 -15.234375 116.78125 -19.109375 C 116.476562 -20.328125 116.171875 -21.367188 115.859375 -22.234375 C 115.554688 -23.109375 115.148438 -23.546875 114.640625 -23.546875 C 114.035156 -23.546875 113.375 -23.132812 112.65625 -22.3125 C 111.945312 -21.5 110.878906 -20.328125 109.453125 -18.796875 C 106.085938 -15.234375 102.265625 -11.769531 97.984375 -8.40625 C 93.703125 -5.039062 88.804688 -2.285156 83.296875 -0.140625 C 77.796875 1.992188 71.582031 3.0625 64.65625 3.0625 C 54.570312 3.0625 45.988281 0.59375 38.90625 -4.34375 C 31.820312 -9.289062 26.394531 -16.09375 22.625 -24.75 C 18.851562 -33.414062 16.96875 -43.359375 16.96875 -54.578125 C 16.96875 -66.898438 18.394531 -78.3125 21.25 -88.8125 C 24.101562 -99.3125 28.023438 -108.789062 33.015625 -117.25 C 38.003906 -125.707031 43.757812 -132.914062 50.28125 -138.875 C 56.8125 -144.832031 63.820312 -149.390625 71.3125 -152.546875 C 78.800781 -155.710938 86.367188 -157.296875 94.015625 -157.296875 C 100.023438 -157.296875 105.09375 -156.398438 109.21875 -154.609375 C 113.34375 -152.828125 116.703125 -150.738281 119.296875 -148.34375 C 121.898438 -145.957031 123.890625 -143.867188 125.265625 -142.078125 C 126.640625 -140.296875 127.53125 -139.40625 127.9375 -139.40625 C 128.757812 -139.40625 129.523438 -140.347656 130.234375 -142.234375 C 130.953125 -144.117188 131.613281 -146.640625 132.21875 -149.796875 C 132.53125 -151.222656 132.9375 -153.539062 133.4375 -156.75 C 133.945312 -159.96875 134.507812 -163.410156 135.125 -167.078125 C 135.738281 -170.742188 136.25 -174.078125 136.65625 -177.078125 C 137.0625 -180.085938 137.265625 -182.101562 137.265625 -183.125 C 137.265625 -186.382812 136.550781 -188.90625 135.125 -190.6875 C 133.695312 -192.476562 131.8125 -193.878906 129.46875 -194.890625 C 128.144531 -195.710938 126.945312 -196.628906 125.875 -197.640625 C 124.8125 -198.660156 124.28125 -199.882812 124.28125 -201.3125 C 124.28125 -204.46875 125.679688 -207.113281 128.484375 -209.25 C 131.285156 -211.394531 135.640625 -213.742188 141.546875 -216.296875 C 148.273438 -219.148438 154.441406 -221.265625 160.046875 -222.640625 C 165.648438 -224.015625 169.722656 -224.703125 172.265625 -224.703125 Z M 101.046875 -135.890625 C 95.640625 -135.890625 90.285156 -134.054688 84.984375 -130.390625 C 79.691406 -126.722656 74.878906 -121.550781 70.546875 -114.875 C 66.210938 -108.195312 62.742188 -100.347656 60.140625 -91.328125 C 57.546875 -82.316406 56.25 -72.457031 56.25 -61.75 C 56.25 -50.03125 58.414062 -40.65625 62.75 -33.625 C 67.082031 -26.59375 73.578125 -23.078125 82.234375 -23.078125 C 87.742188 -23.078125 93.019531 -24.859375 98.0625 -28.421875 C 103.101562 -31.992188 107.609375 -37.117188 111.578125 -43.796875 C 115.554688 -50.472656 118.691406 -58.5 120.984375 -67.875 C 123.273438 -77.25 124.421875 -87.742188 124.421875 -99.359375 C 124.421875 -107.816406 123.347656 -114.742188 121.203125 -120.140625 C 119.066406 -125.546875 116.238281 -129.519531 112.71875 -132.0625 C 109.207031 -134.613281 105.316406 -135.890625 101.046875 -135.890625 Z M 101.046875 -135.890625 "/></g></g></g><g fill="#000000" fill-opacity="1"><g transform="translate(252.729514, 324.771595)"><g><path d="M 100.734375 -137.578125 C 94.921875 -137.578125 89.414062 -135.992188 84.21875 -132.828125 C 79.03125 -129.671875 74.394531 -125.546875 70.3125 -120.453125 C 66.238281 -115.359375 63.054688 -109.851562 60.765625 -103.9375 C 58.472656 -98.03125 57.328125 -92.378906 57.328125 -86.984375 C 57.328125 -85.140625 57.578125 -83.679688 58.078125 -82.609375 C 58.585938 -81.546875 59.660156 -81.015625 61.296875 -81.015625 C 64.253906 -81.015625 68.148438 -81.421875 72.984375 -82.234375 C 77.828125 -83.054688 82.945312 -84.359375 88.34375 -86.140625 C 93.75 -87.921875 98.867188 -90.265625 103.703125 -93.171875 C 108.546875 -96.078125 112.492188 -99.539062 115.546875 -103.5625 C 118.609375 -107.582031 120.140625 -112.296875 120.140625 -117.703125 C 120.140625 -123.003906 118.5625 -127.640625 115.40625 -131.609375 C 112.25 -135.585938 107.359375 -137.578125 100.734375 -137.578125 Z M 107 -157.296875 C 116.988281 -157.296875 125.445312 -155.613281 132.375 -152.25 C 139.300781 -148.882812 144.570312 -144.375 148.1875 -138.71875 C 151.8125 -133.0625 153.625 -126.71875 153.625 -119.6875 C 153.625 -113.164062 152.171875 -107.332031 149.265625 -102.1875 C 146.359375 -97.039062 142.429688 -92.503906 137.484375 -88.578125 C 132.546875 -84.660156 126.96875 -81.273438 120.75 -78.421875 C 114.539062 -75.566406 108.070312 -73.171875 101.34375 -71.234375 C 94.613281 -69.296875 87.988281 -67.789062 81.46875 -66.71875 C 74.945312 -65.65625 68.9375 -64.914062 63.4375 -64.5 C 61.90625 -64.40625 60.804688 -63.945312 60.140625 -63.125 C 59.484375 -62.3125 59.15625 -60.679688 59.15625 -58.234375 C 59.15625 -55.484375 59.6875 -52.300781 60.75 -48.6875 C 61.820312 -45.070312 63.609375 -41.554688 66.109375 -38.140625 C 68.609375 -34.722656 72.019531 -31.894531 76.34375 -29.65625 C 80.675781 -27.414062 86.109375 -26.296875 92.640625 -26.296875 C 98.953125 -26.296875 104.578125 -27.285156 109.515625 -29.265625 C 114.460938 -31.253906 118.820312 -33.75 122.59375 -36.75 C 126.363281 -39.757812 129.675781 -42.867188 132.53125 -46.078125 C 135.382812 -49.296875 137.78125 -52.078125 139.71875 -54.421875 C 140.832031 -55.535156 141.769531 -56.472656 142.53125 -57.234375 C 143.300781 -58.003906 144.195312 -58.390625 145.21875 -58.390625 C 146.238281 -58.390625 147.078125 -57.957031 147.734375 -57.09375 C 148.398438 -56.226562 148.734375 -54.878906 148.734375 -53.046875 C 148.734375 -49.378906 147.710938 -45.125 145.671875 -40.28125 C 143.640625 -35.4375 140.660156 -30.46875 136.734375 -25.375 C 132.804688 -20.28125 127.9375 -15.566406 122.125 -11.234375 C 116.320312 -6.898438 109.648438 -3.382812 102.109375 -0.6875 C 94.566406 2.007812 86.210938 3.359375 77.046875 3.359375 C 64.503906 3.359375 53.75 0.609375 44.78125 -4.890625 C 35.820312 -10.390625 28.945312 -17.953125 24.15625 -27.578125 C 19.363281 -37.210938 16.96875 -48.195312 16.96875 -60.53125 C 16.96875 -70.414062 18.441406 -80.070312 21.390625 -89.5 C 24.347656 -98.925781 28.550781 -107.738281 34 -115.9375 C 39.457031 -124.144531 45.929688 -131.332031 53.421875 -137.5 C 60.910156 -143.664062 69.164062 -148.503906 78.1875 -152.015625 C 87.207031 -155.535156 96.8125 -157.296875 107 -157.296875 Z M 107 -157.296875 "/></g></g></g><g fill="#000000" fill-opacity="1"><g transform="translate(399.623529, 324.771595)"><g><path d="M 71.078125 -156.53125 C 73.929688 -156.53125 75.867188 -155.816406 76.890625 -154.390625 C 77.910156 -152.960938 78.421875 -151.226562 78.421875 -149.1875 C 78.421875 -145.414062 77.984375 -141.109375 77.109375 -136.265625 C 76.242188 -131.429688 75.222656 -126.617188 74.046875 -121.828125 C 72.878906 -117.035156 71.863281 -112.878906 71 -109.359375 C 70.132812 -105.847656 69.703125 -103.535156 69.703125 -102.421875 C 69.703125 -101.085938 70.007812 -100.421875 70.625 -100.421875 C 71.132812 -100.421875 72.226562 -101.796875 73.90625 -104.546875 C 75.59375 -107.304688 77.835938 -110.820312 80.640625 -115.09375 C 83.441406 -119.375 86.800781 -123.960938 90.71875 -128.859375 C 94.644531 -133.753906 99.128906 -138.335938 104.171875 -142.609375 C 109.210938 -146.890625 114.738281 -150.40625 120.75 -153.15625 C 126.769531 -155.914062 133.242188 -157.296875 140.171875 -157.296875 C 149.953125 -157.296875 157.953125 -154.1875 164.171875 -147.96875 C 170.390625 -141.75 173.5 -132.269531 173.5 -119.53125 C 173.5 -114.332031 172.859375 -108.753906 171.578125 -102.796875 C 170.304688 -96.835938 168.753906 -90.75 166.921875 -84.53125 C 165.085938 -78.3125 163.253906 -72.222656 161.421875 -66.265625 C 159.585938 -60.304688 158.03125 -54.675781 156.75 -49.375 C 155.476562 -44.070312 154.84375 -39.332031 154.84375 -35.15625 C 154.84375 -32.914062 155.222656 -30.648438 155.984375 -28.359375 C 156.753906 -26.066406 158.566406 -24.921875 161.421875 -24.921875 C 163.359375 -24.921875 164.988281 -25.632812 166.3125 -27.0625 C 167.632812 -28.488281 168.832031 -29.910156 169.90625 -31.328125 C 170.976562 -32.753906 172.175781 -33.46875 173.5 -33.46875 C 174.207031 -33.46875 174.867188 -33.085938 175.484375 -32.328125 C 176.097656 -31.566406 176.40625 -30.316406 176.40625 -28.578125 C 176.40625 -25.222656 175.5625 -21.757812 173.875 -18.1875 C 172.195312 -14.625 169.828125 -11.285156 166.765625 -8.171875 C 163.710938 -5.066406 160.046875 -2.546875 155.765625 -0.609375 C 151.484375 1.328125 146.691406 2.296875 141.390625 2.296875 C 133.847656 2.296875 127.65625 -0.0195312 122.8125 -4.65625 C 117.976562 -9.300781 115.5625 -16.3125 115.5625 -25.6875 C 115.5625 -30.78125 116.171875 -36.203125 117.390625 -41.953125 C 118.617188 -47.710938 120.148438 -53.625 121.984375 -59.6875 C 123.816406 -65.75 125.648438 -71.6875 127.484375 -77.5 C 129.316406 -83.3125 130.84375 -88.789062 132.0625 -93.9375 C 133.289062 -99.082031 133.90625 -103.640625 133.90625 -107.609375 C 133.90625 -114.128906 132.78125 -119.070312 130.53125 -122.4375 C 128.289062 -125.800781 124.675781 -127.484375 119.6875 -127.484375 C 115.300781 -127.484375 110.738281 -125.695312 106 -122.125 C 101.269531 -118.5625 96.660156 -113.800781 92.171875 -107.84375 C 87.691406 -101.882812 83.566406 -95.257812 79.796875 -87.96875 C 76.023438 -80.6875 72.785156 -73.222656 70.078125 -65.578125 C 67.378906 -57.929688 65.519531 -50.75 64.5 -44.03125 C 63.789062 -39.332031 63.253906 -34.765625 62.890625 -30.328125 C 62.535156 -25.898438 62.359375 -22.3125 62.359375 -19.5625 C 62.359375 -16.8125 61.953125 -13.984375 61.140625 -11.078125 C 60.328125 -8.171875 58.953125 -6.003906 57.015625 -4.578125 C 55.585938 -3.359375 53.21875 -2.289062 49.90625 -1.375 C 46.59375 -0.457031 42.875 0.226562 38.75 0.6875 C 34.625 1.144531 30.519531 1.375 26.4375 1.375 C 22.976562 1.375 20.710938 0.613281 19.640625 -0.90625 C 18.566406 -2.4375 18.03125 -4.125 18.03125 -5.96875 C 18.03125 -8.3125 19.070312 -12.945312 21.15625 -19.875 C 23.25 -26.800781 25.367188 -35.257812 27.515625 -45.25 C 28.835938 -51.664062 30.210938 -58.414062 31.640625 -65.5 C 33.066406 -72.582031 34.363281 -79.460938 35.53125 -86.140625 C 36.707031 -92.816406 37.648438 -98.75 38.359375 -103.9375 C 39.078125 -109.132812 39.4375 -113.113281 39.4375 -115.875 C 39.4375 -119.84375 38.722656 -122.613281 37.296875 -124.1875 C 35.867188 -125.769531 34.132812 -126.867188 32.09375 -127.484375 C 30.769531 -127.992188 29.492188 -128.78125 28.265625 -129.84375 C 27.046875 -130.914062 26.4375 -132.269531 26.4375 -133.90625 C 26.4375 -136.65625 28.015625 -139.253906 31.171875 -141.703125 C 34.335938 -144.148438 39.082031 -146.644531 45.40625 -149.1875 C 52.332031 -151.9375 57.726562 -153.847656 61.59375 -154.921875 C 65.46875 -155.992188 68.628906 -156.53125 71.078125 -156.53125 Z M 71.078125 -156.53125 "/></g></g></g><g fill="#000000" fill-opacity="1"><g transform="translate(577.088622, 324.771595)"><g/></g></g><g fill="#000000" fill-opacity="1"><g transform="translate(649.847791, 324.771595)"><g><path d="M 100.734375 -137.578125 C 94.921875 -137.578125 89.414062 -135.992188 84.21875 -132.828125 C 79.03125 -129.671875 74.394531 -125.546875 70.3125 -120.453125 C 66.238281 -115.359375 63.054688 -109.851562 60.765625 -103.9375 C 58.472656 -98.03125 57.328125 -92.378906 57.328125 -86.984375 C 57.328125 -85.140625 57.578125 -83.679688 58.078125 -82.609375 C 58.585938 -81.546875 59.660156 -81.015625 61.296875 -81.015625 C 64.253906 -81.015625 68.148438 -81.421875 72.984375 -82.234375 C 77.828125 -83.054688 82.945312 -84.359375 88.34375 -86.140625 C 93.75 -87.921875 98.867188 -90.265625 103.703125 -93.171875 C 108.546875 -96.078125 112.492188 -99.539062 115.546875 -103.5625 C 118.609375 -107.582031 120.140625 -112.296875 120.140625 -117.703125 C 120.140625 -123.003906 118.5625 -127.640625 115.40625 -131.609375 C 112.25 -135.585938 107.359375 -137.578125 100.734375 -137.578125 Z M 107 -157.296875 C 116.988281 -157.296875 125.445312 -155.613281 132.375 -152.25 C 139.300781 -148.882812 144.570312 -144.375 148.1875 -138.71875 C 151.8125 -133.0625 153.625 -126.71875 153.625 -119.6875 C 153.625 -113.164062 152.171875 -107.332031 149.265625 -102.1875 C 146.359375 -97.039062 142.429688 -92.503906 137.484375 -88.578125 C 132.546875 -84.660156 126.96875 -81.273438 120.75 -78.421875 C 114.539062 -75.566406 108.070312 -73.171875 101.34375 -71.234375 C 94.613281 -69.296875 87.988281 -67.789062 81.46875 -66.71875 C 74.945312 -65.65625 68.9375 -64.914062 63.4375 -64.5 C 61.90625 -64.40625 60.804688 -63.945312 60.140625 -63.125 C 59.484375 -62.3125 59.15625 -60.679688 59.15625 -58.234375 C 59.15625 -55.484375 59.6875 -52.300781 60.75 -48.6875 C 61.820312 -45.070312 63.609375 -41.554688 66.109375 -38.140625 C 68.609375 -34.722656 72.019531 -31.894531 76.34375 -29.65625 C 80.675781 -27.414062 86.109375 -26.296875 92.640625 -26.296875 C 98.953125 -26.296875 104.578125 -27.285156 109.515625 -29.265625 C 114.460938 -31.253906 118.820312 -33.75 122.59375 -36.75 C 126.363281 -39.757812 129.675781 -42.867188 132.53125 -46.078125 C 135.382812 -49.296875 137.78125 -52.078125 139.71875 -54.421875 C 140.832031 -55.535156 141.769531 -56.472656 142.53125 -57.234375 C 143.300781 -58.003906 144.195312 -58.390625 145.21875 -58.390625 C 146.238281 -58.390625 147.078125 -57.957031 147.734375 -57.09375 C 148.398438 -56.226562 148.734375 -54.878906 148.734375 -53.046875 C 148.734375 -49.378906 147.710938 -45.125 145.671875 -40.28125 C 143.640625 -35.4375 140.660156 -30.46875 136.734375 -25.375 C 132.804688 -20.28125 127.9375 -15.566406 122.125 -11.234375 C 116.320312 -6.898438 109.648438 -3.382812 102.109375 -0.6875 C 94.566406 2.007812 86.210938 3.359375 77.046875 3.359375 C 64.503906 3.359375 53.75 0.609375 44.78125 -4.890625 C 35.820312 -10.390625 28.945312 -17.953125 24.15625 -27.578125 C 19.363281 -37.210938 16.96875 -48.195312 16.96875 -60.53125 C 16.96875 -70.414062 18.441406 -80.070312 21.390625 -89.5 C 24.347656 -98.925781 28.550781 -107.738281 34 -115.9375 C 39.457031 -124.144531 45.929688 -131.332031 53.421875 -137.5 C 60.910156 -143.664062 69.164062 -148.503906 78.1875 -152.015625 C 87.207031 -155.535156 96.8125 -157.296875 107 -157.296875 Z M 107 -157.296875 "/></g></g></g><g fill="#000000" fill-opacity="1"><g transform="translate(797.200417, 324.771595)"><g><path d="M 172.265625 -224.703125 C 174.609375 -224.703125 176.441406 -224.113281 177.765625 -222.9375 C 179.097656 -221.769531 179.765625 -219.910156 179.765625 -217.359375 C 179.765625 -215.929688 179.378906 -212.75 178.609375 -207.8125 C 177.847656 -202.875 176.804688 -196.679688 175.484375 -189.234375 C 174.160156 -181.796875 172.679688 -173.515625 171.046875 -164.390625 C 169.421875 -155.273438 167.738281 -145.75 166 -135.8125 C 164.269531 -125.875 162.585938 -115.960938 160.953125 -106.078125 C 159.328125 -96.191406 157.851562 -86.789062 156.53125 -77.875 C 155.207031 -68.957031 154.160156 -60.90625 153.390625 -53.71875 C 152.628906 -46.539062 152.25 -40.757812 152.25 -36.375 C 152.25 -32.8125 152.832031 -30.007812 154 -27.96875 C 155.175781 -25.9375 156.679688 -24.921875 158.515625 -24.921875 C 160.554688 -24.921875 162.238281 -25.632812 163.5625 -27.0625 C 164.882812 -28.488281 166.101562 -29.910156 167.21875 -31.328125 C 168.34375 -32.753906 169.566406 -33.46875 170.890625 -33.46875 C 171.398438 -33.46875 171.984375 -33.160156 172.640625 -32.546875 C 173.304688 -31.941406 173.640625 -30.617188 173.640625 -28.578125 C 173.640625 -25.316406 172.875 -21.90625 171.34375 -18.34375 C 169.820312 -14.78125 167.582031 -11.414062 164.625 -8.25 C 161.675781 -5.09375 158.132812 -2.546875 154 -0.609375 C 149.875 1.328125 145.210938 2.296875 140.015625 2.296875 C 135.835938 2.296875 132.09375 1.328125 128.78125 -0.609375 C 125.46875 -2.546875 122.765625 -5.144531 120.671875 -8.40625 C 118.585938 -11.664062 117.289062 -15.234375 116.78125 -19.109375 C 116.476562 -20.328125 116.171875 -21.367188 115.859375 -22.234375 C 115.554688 -23.109375 115.148438 -23.546875 114.640625 -23.546875 C 114.035156 -23.546875 113.375 -23.132812 112.65625 -22.3125 C 111.945312 -21.5 110.878906 -20.328125 109.453125 -18.796875 C 106.085938 -15.234375 102.265625 -11.769531 97.984375 -8.40625 C 93.703125 -5.039062 88.804688 -2.285156 83.296875 -0.140625 C 77.796875 1.992188 71.582031 3.0625 64.65625 3.0625 C 54.570312 3.0625 45.988281 0.59375 38.90625 -4.34375 C 31.820312 -9.289062 26.394531 -16.09375 22.625 -24.75 C 18.851562 -33.414062 16.96875 -43.359375 16.96875 -54.578125 C 16.96875 -66.898438 18.394531 -78.3125 21.25 -88.8125 C 24.101562 -99.3125 28.023438 -108.789062 33.015625 -117.25 C 38.003906 -125.707031 43.757812 -132.914062 50.28125 -138.875 C 56.8125 -144.832031 63.820312 -149.390625 71.3125 -152.546875 C 78.800781 -155.710938 86.367188 -157.296875 94.015625 -157.296875 C 100.023438 -157.296875 105.09375 -156.398438 109.21875 -154.609375 C 113.34375 -152.828125 116.703125 -150.738281 119.296875 -148.34375 C 121.898438 -145.957031 123.890625 -143.867188 125.265625 -142.078125 C 126.640625 -140.296875 127.53125 -139.40625 127.9375 -139.40625 C 128.757812 -139.40625 129.523438 -140.347656 130.234375 -142.234375 C 130.953125 -144.117188 131.613281 -146.640625 132.21875 -149.796875 C 132.53125 -151.222656 132.9375 -153.539062 133.4375 -156.75 C 133.945312 -159.96875 134.507812 -163.410156 135.125 -167.078125 C 135.738281 -170.742188 136.25 -174.078125 136.65625 -177.078125 C 137.0625 -180.085938 137.265625 -182.101562 137.265625 -183.125 C 137.265625 -186.382812 136.550781 -188.90625 135.125 -190.6875 C 133.695312 -192.476562 131.8125 -193.878906 129.46875 -194.890625 C 128.144531 -195.710938 126.945312 -196.628906 125.875 -197.640625 C 124.8125 -198.660156 124.28125 -199.882812 124.28125 -201.3125 C 124.28125 -204.46875 125.679688 -207.113281 128.484375 -209.25 C 131.285156 -211.394531 135.640625 -213.742188 141.546875 -216.296875 C 148.273438 -219.148438 154.441406 -221.265625 160.046875 -222.640625 C 165.648438 -224.015625 169.722656 -224.703125 172.265625 -224.703125 Z M 101.046875 -135.890625 C 95.640625 -135.890625 90.285156 -134.054688 84.984375 -130.390625 C 79.691406 -126.722656 74.878906 -121.550781 70.546875 -114.875 C 66.210938 -108.195312 62.742188 -100.347656 60.140625 -91.328125 C 57.546875 -82.316406 56.25 -72.457031 56.25 -61.75 C 56.25 -50.03125 58.414062 -40.65625 62.75 -33.625 C 67.082031 -26.59375 73.578125 -23.078125 82.234375 -23.078125 C 87.742188 -23.078125 93.019531 -24.859375 98.0625 -28.421875 C 103.101562 -31.992188 107.609375 -37.117188 111.578125 -43.796875 C 115.554688 -50.472656 118.691406 -58.5 120.984375 -67.875 C 123.273438 -77.25 124.421875 -87.742188 124.421875 -99.359375 C 124.421875 -107.816406 123.347656 -114.742188 121.203125 -120.140625 C 119.066406 -125.546875 116.238281 -129.519531 112.71875 -132.0625 C 109.207031 -134.613281 105.316406 -135.890625 101.046875 -135.890625 Z M 101.046875 -135.890625 "/></g></g></g></g></g></g></g></g></mask><clipPath id="5b63993cbc"><path d="M 0 0 L 1050 0 L 1050 450 L 0 450 Z M 0 0 " clip-rule="nonzero"/></clipPath><clipPath id="34639de361"><rect x="0" width="1050" y="0" height="450"/></clipPath><clipPath id="1f9272afab"><rect x="0" width="1050" y="0" height="450"/></clipPath><clipPath id="3cf2d32d7b"><rect x="0" width="1050" y="0" height="450"/></clipPath><clipPath id="90e8c0144f"><path d="M 581 13 L 648 13 L 648 374 L 581 374 Z M 581 13 " clip-rule="nonzero"/></clipPath><clipPath id="c96c817bed"><path d="M 751.347656 326.410156 L 599.011719 385.789062 L 476.988281 72.730469 L 629.324219 13.351562 Z M 751.347656 326.410156 " clip-rule="nonzero"/></clipPath><clipPath id="bc794c5dd4"><path d="M 751.347656 326.410156 L 599.011719 385.789062 L 476.988281 72.730469 L 629.324219 13.351562 Z M 751.347656 326.410156 " clip-rule="nonzero"/></clipPath></defs><rect x="-105" width="1260" fill="#ffffff" y="-44.999998" height="539.99998" fill-opacity="1"/><g transform="matrix(1, 0, 0, 1, 0, 0)"><g clip-path="url(#3cf2d32d7b)"><g transform="matrix(1, 0, 0, 1, 0, 0)"><g clip-path="url(#1f9272afab)"><g mask="url(#f0c0e4f97a)"><g transform="matrix(1, 0, 0, 1, 0, 0)"><g clip-path="url(#34639de361)"><g clip-path="url(#5b63993cbc)"><rect x="-563.64" fill="url(#cd6f2b9523)" width="2177.28" height="933.119966" y="-241.559991"/></g></g></g></g></g></g></g></g><g clip-path="url(#90e8c0144f)"><g clip-path="url(#c96c817bed)"><g clip-path="url(#bc794c5dd4)"><path fill="#ffd6c6" d="M 598.300781 372 L 628.449219 373.308594 C 630.53125 373.503906 632.371094 371.78125 632.5625 369.695312 C 632.757812 367.613281 631.035156 365.773438 628.949219 365.578125 L 621.390625 365.511719 L 622.410156 338.492188 L 641.265625 339.179688 C 644.828125 339.300781 647.371094 336.800781 647.488281 333.238281 C 647.605469 329.675781 645.109375 327.132812 641.546875 327.015625 L 634.859375 326.609375 L 641.160156 173.960938 L 641.109375 169.960938 L 639.027344 169.769531 L 639.316406 166.644531 L 641.398438 166.835938 L 641.761719 165.1875 L 639.675781 164.996094 L 639.601562 163.515625 L 641.6875 163.710938 L 641.710938 161.1875 C 641.710938 161.1875 639.0625 155.691406 631.355469 152.667969 L 631.496094 146.585938 L 633.582031 146.777344 L 633.773438 144.691406 L 631.6875 144.5 L 632 138.855469 L 630.589844 131.367188 L 631.015625 122.160156 L 626.28125 107.429688 L 624.800781 107.503906 L 628.414062 13.667969 L 626.402344 14.957031 L 622.71875 107.308594 L 621.238281 107.382812 L 615.289062 121.757812 L 614.859375 130.96875 L 612.710938 138.335938 L 612.398438 143.980469 L 610.316406 143.789062 L 610.121094 145.875 L 612.207031 146.066406 L 612.066406 152.148438 C 604.484375 154.601562 601.046875 159.960938 601.046875 159.960938 L 601.023438 162.480469 L 603.109375 162.671875 L 603.179688 164.152344 L 601.097656 163.957031 L 600.90625 166.042969 L 602.988281 166.234375 L 602.699219 169.363281 L 600.617188 169.167969 L 600.667969 173.167969 L 594.363281 325.816406 L 587.675781 325.410156 C 584.113281 325.289062 581.570312 327.789062 581.453125 331.351562 C 581.332031 334.914062 583.832031 337.457031 587.394531 337.574219 L 606.246094 338.261719 L 605.226562 365.28125 L 597.664062 365.214844 C 595.582031 365.023438 593.742188 366.746094 593.546875 368.828125 C 594.496094 369.96875 596.214844 371.808594 598.300781 372 Z M 598.300781 372 " fill-opacity="1" fill-rule="nonzero"/></g></g></g></svg>