<svg xmlns="http://www.w3.org/2000/svg" xmlns:xlink="http://www.w3.org/1999/xlink" width="1024" zoomAndPan="magnify" viewBox="0 0 768 767.999994" height="1024" preserveAspectRatio="xMidYMid meet" version="1.0"><defs><g/><clipPath id="e47200879b"><rect x="0" width="703" y="0" height="284"/></clipPath><clipPath id="28094faeff"><path d="M 429 208 L 482 208 L 482 490 L 429 490 Z M 429 208 " clip-rule="nonzero"/></clipPath><clipPath id="0d2fd9daa6"><path d="M 562.527344 452.980469 L 443.734375 499.28125 L 348.402344 254.703125 L 467.199219 208.402344 Z M 562.527344 452.980469 " clip-rule="nonzero"/></clipPath><clipPath id="703f714ccd"><path d="M 562.527344 452.980469 L 443.734375 499.28125 L 348.402344 254.703125 L 467.199219 208.402344 Z M 562.527344 452.980469 " clip-rule="nonzero"/></clipPath><clipPath id="e5b7a6e095"><path d="M 562.527344 452.980469 L 443.734375 499.28125 L 348.402344 254.703125 L 467.199219 208.402344 Z M 562.527344 452.980469 " clip-rule="nonzero"/></clipPath></defs><g transform="matrix(1, 0, 0, 1, 33, 231)"><g clip-path="url(#e47200879b)"><g fill="#000000" fill-opacity="1"><g transform="translate(1.095025, 223.146465)"><g><path d="M 134.484375 -175.421875 C 136.316406 -175.421875 137.75 -174.960938 138.78125 -174.046875 C 139.820312 -173.128906 140.34375 -171.679688 140.34375 -169.703125 C 140.34375 -168.585938 140.039062 -166.097656 139.4375 -162.234375 C 138.84375 -158.378906 138.03125 -153.546875 137 -147.734375 C 135.96875 -141.929688 134.8125 -135.46875 133.53125 -128.34375 C 132.257812 -121.226562 130.945312 -113.789062 129.59375 -106.03125 C 128.238281 -98.269531 126.925781 -90.53125 125.65625 -82.8125 C 124.382812 -75.101562 123.234375 -67.765625 122.203125 -60.796875 C 121.171875 -53.835938 120.351562 -47.550781 119.75 -41.9375 C 119.15625 -36.332031 118.859375 -31.820312 118.859375 -28.40625 C 118.859375 -25.613281 119.316406 -23.421875 120.234375 -21.828125 C 121.148438 -20.242188 122.320312 -19.453125 123.75 -19.453125 C 125.34375 -19.453125 126.65625 -20.007812 127.6875 -21.125 C 128.71875 -22.238281 129.671875 -23.351562 130.546875 -24.46875 C 131.421875 -25.582031 132.378906 -26.140625 133.421875 -26.140625 C 133.816406 -26.140625 134.269531 -25.898438 134.78125 -25.421875 C 135.300781 -24.941406 135.5625 -23.90625 135.5625 -22.3125 C 135.5625 -19.769531 134.960938 -17.101562 133.765625 -14.3125 C 132.578125 -11.53125 130.828125 -8.90625 128.515625 -6.4375 C 126.210938 -3.976562 123.445312 -1.988281 120.21875 -0.46875 C 117 1.039062 113.363281 1.796875 109.3125 1.796875 C 106.050781 1.796875 103.125 1.039062 100.53125 -0.46875 C 97.945312 -1.988281 95.835938 -4.019531 94.203125 -6.5625 C 92.578125 -9.101562 91.566406 -11.890625 91.171875 -14.921875 C 90.929688 -15.867188 90.691406 -16.679688 90.453125 -17.359375 C 90.210938 -18.035156 89.894531 -18.375 89.5 -18.375 C 89.019531 -18.375 88.5 -18.054688 87.9375 -17.421875 C 87.382812 -16.785156 86.550781 -15.867188 85.4375 -14.671875 C 82.8125 -11.890625 79.828125 -9.1875 76.484375 -6.5625 C 73.148438 -3.9375 69.332031 -1.785156 65.03125 -0.109375 C 60.738281 1.554688 55.890625 2.390625 50.484375 2.390625 C 42.609375 2.390625 35.90625 0.460938 30.375 -3.390625 C 24.84375 -7.253906 20.601562 -12.566406 17.65625 -19.328125 C 14.71875 -26.085938 13.25 -33.847656 13.25 -42.609375 C 13.25 -52.234375 14.359375 -61.140625 16.578125 -69.328125 C 18.804688 -77.523438 21.867188 -84.925781 25.765625 -91.53125 C 29.671875 -98.132812 34.171875 -103.757812 39.265625 -108.40625 C 44.359375 -113.0625 49.828125 -116.625 55.671875 -119.09375 C 61.515625 -121.5625 67.421875 -122.796875 73.390625 -122.796875 C 78.085938 -122.796875 82.046875 -122.097656 85.265625 -120.703125 C 88.484375 -119.316406 91.109375 -117.6875 93.140625 -115.8125 C 95.171875 -113.945312 96.722656 -112.316406 97.796875 -110.921875 C 98.867188 -109.523438 99.566406 -108.828125 99.890625 -108.828125 C 100.523438 -108.828125 101.117188 -109.5625 101.671875 -111.03125 C 102.234375 -112.507812 102.75 -114.484375 103.21875 -116.953125 C 103.457031 -118.066406 103.773438 -119.875 104.171875 -122.375 C 104.578125 -124.882812 105.015625 -127.570312 105.484375 -130.4375 C 105.960938 -133.300781 106.359375 -135.90625 106.671875 -138.25 C 106.992188 -140.59375 107.15625 -142.164062 107.15625 -142.96875 C 107.15625 -145.507812 106.597656 -147.472656 105.484375 -148.859375 C 104.378906 -150.253906 102.910156 -151.351562 101.078125 -152.15625 C 100.046875 -152.789062 99.109375 -153.503906 98.265625 -154.296875 C 97.429688 -155.097656 97.015625 -156.054688 97.015625 -157.171875 C 97.015625 -159.628906 98.109375 -161.691406 100.296875 -163.359375 C 102.484375 -165.035156 105.882812 -166.867188 110.5 -168.859375 C 115.75 -171.085938 120.5625 -172.738281 124.9375 -173.8125 C 129.320312 -174.882812 132.503906 -175.421875 134.484375 -175.421875 Z M 78.875 -106.09375 C 74.664062 -106.09375 70.488281 -104.660156 66.34375 -101.796875 C 62.207031 -98.929688 58.445312 -94.890625 55.0625 -89.671875 C 51.6875 -84.460938 48.984375 -78.335938 46.953125 -71.296875 C 44.929688 -64.253906 43.921875 -56.5625 43.921875 -48.21875 C 43.921875 -39.0625 45.609375 -31.738281 48.984375 -26.25 C 52.367188 -20.757812 57.441406 -18.015625 64.203125 -18.015625 C 68.492188 -18.015625 72.609375 -19.40625 76.546875 -22.1875 C 80.492188 -24.976562 84.015625 -28.976562 87.109375 -34.1875 C 90.210938 -39.394531 92.660156 -45.660156 94.453125 -52.984375 C 96.242188 -60.304688 97.140625 -68.5 97.140625 -77.5625 C 97.140625 -84.164062 96.300781 -89.578125 94.625 -93.796875 C 92.957031 -98.015625 90.75 -101.117188 88 -103.109375 C 85.257812 -105.097656 82.21875 -106.09375 78.875 -106.09375 Z M 78.875 -106.09375 "/></g></g></g><g fill="#000000" fill-opacity="1"><g transform="translate(134.983726, 223.146465)"><g><path d="M 78.640625 -107.40625 C 74.109375 -107.40625 69.8125 -106.171875 65.75 -103.703125 C 61.695312 -101.234375 58.078125 -98.007812 54.890625 -94.03125 C 51.710938 -90.050781 49.226562 -85.753906 47.4375 -81.140625 C 45.644531 -76.535156 44.75 -72.125 44.75 -67.90625 C 44.75 -66.46875 44.945312 -65.332031 45.34375 -64.5 C 45.738281 -63.664062 46.578125 -63.25 47.859375 -63.25 C 50.160156 -63.25 53.203125 -63.566406 56.984375 -64.203125 C 60.765625 -64.835938 64.757812 -65.847656 68.96875 -67.234375 C 73.1875 -68.628906 77.1875 -70.460938 80.96875 -72.734375 C 84.75 -75.003906 87.832031 -77.707031 90.21875 -80.84375 C 92.601562 -83.988281 93.796875 -87.671875 93.796875 -91.890625 C 93.796875 -96.023438 92.5625 -99.644531 90.09375 -102.75 C 87.632812 -105.851562 83.816406 -107.40625 78.640625 -107.40625 Z M 83.53125 -122.796875 C 91.332031 -122.796875 97.9375 -121.484375 103.34375 -118.859375 C 108.75 -116.234375 112.863281 -112.710938 115.6875 -108.296875 C 118.519531 -103.878906 119.9375 -98.925781 119.9375 -93.4375 C 119.9375 -88.34375 118.800781 -83.785156 116.53125 -79.765625 C 114.257812 -75.753906 111.195312 -72.21875 107.34375 -69.15625 C 103.488281 -66.09375 99.132812 -63.445312 94.28125 -61.21875 C 89.425781 -58.988281 84.375 -57.117188 79.125 -55.609375 C 73.875 -54.097656 68.703125 -52.925781 63.609375 -52.09375 C 58.515625 -51.257812 53.820312 -50.679688 49.53125 -50.359375 C 48.332031 -50.273438 47.472656 -49.914062 46.953125 -49.28125 C 46.441406 -48.644531 46.1875 -47.375 46.1875 -45.46875 C 46.1875 -43.320312 46.601562 -40.832031 47.4375 -38 C 48.269531 -35.175781 49.660156 -32.429688 51.609375 -29.765625 C 53.554688 -27.109375 56.222656 -24.90625 59.609375 -23.15625 C 62.992188 -21.40625 67.226562 -20.53125 72.3125 -20.53125 C 77.25 -20.53125 81.644531 -21.304688 85.5 -22.859375 C 89.363281 -24.410156 92.765625 -26.359375 95.703125 -28.703125 C 98.648438 -31.046875 101.238281 -33.46875 103.46875 -35.96875 C 105.695312 -38.476562 107.566406 -40.648438 109.078125 -42.484375 C 109.953125 -43.359375 110.6875 -44.09375 111.28125 -44.6875 C 111.875 -45.289062 112.570312 -45.59375 113.375 -45.59375 C 114.164062 -45.59375 114.816406 -45.253906 115.328125 -44.578125 C 115.847656 -43.898438 116.109375 -42.84375 116.109375 -41.40625 C 116.109375 -38.539062 115.3125 -35.21875 113.71875 -31.4375 C 112.132812 -27.664062 109.8125 -23.789062 106.75 -19.8125 C 103.6875 -15.832031 99.882812 -12.148438 95.34375 -8.765625 C 90.8125 -5.390625 85.601562 -2.644531 79.71875 -0.53125 C 73.832031 1.570312 67.304688 2.625 60.140625 2.625 C 50.359375 2.625 41.96875 0.476562 34.96875 -3.8125 C 27.96875 -8.113281 22.597656 -14.019531 18.859375 -21.53125 C 15.117188 -29.050781 13.25 -37.625 13.25 -47.25 C 13.25 -54.96875 14.398438 -62.503906 16.703125 -69.859375 C 19.015625 -77.222656 22.296875 -84.109375 26.546875 -90.515625 C 30.804688 -96.921875 35.859375 -102.53125 41.703125 -107.34375 C 47.554688 -112.15625 54 -115.929688 61.03125 -118.671875 C 68.070312 -121.421875 75.570312 -122.796875 83.53125 -122.796875 Z M 83.53125 -122.796875 "/></g></g></g><g fill="#000000" fill-opacity="1"><g transform="translate(249.660231, 223.146465)"><g><path d="M 55.484375 -122.203125 C 57.710938 -122.203125 59.222656 -121.644531 60.015625 -120.53125 C 60.816406 -119.414062 61.21875 -118.0625 61.21875 -116.46875 C 61.21875 -113.53125 60.878906 -110.171875 60.203125 -106.390625 C 59.523438 -102.609375 58.726562 -98.847656 57.8125 -95.109375 C 56.90625 -91.367188 56.113281 -88.125 55.4375 -85.375 C 54.757812 -82.632812 54.421875 -80.828125 54.421875 -79.953125 C 54.421875 -78.921875 54.660156 -78.40625 55.140625 -78.40625 C 55.535156 -78.40625 56.390625 -79.476562 57.703125 -81.625 C 59.015625 -83.769531 60.765625 -86.515625 62.953125 -89.859375 C 65.140625 -93.203125 67.765625 -96.78125 70.828125 -100.59375 C 73.890625 -104.414062 77.390625 -108 81.328125 -111.34375 C 85.265625 -114.6875 89.578125 -117.429688 94.265625 -119.578125 C 98.960938 -121.722656 104.019531 -122.796875 109.4375 -122.796875 C 117.070312 -122.796875 123.316406 -120.367188 128.171875 -115.515625 C 133.023438 -110.660156 135.453125 -103.265625 135.453125 -93.328125 C 135.453125 -89.265625 134.953125 -84.90625 133.953125 -80.25 C 132.960938 -75.59375 131.75 -70.835938 130.3125 -65.984375 C 128.882812 -61.140625 127.453125 -56.390625 126.015625 -51.734375 C 124.585938 -47.078125 123.375 -42.679688 122.375 -38.546875 C 121.382812 -34.410156 120.890625 -30.710938 120.890625 -27.453125 C 120.890625 -25.703125 121.1875 -23.929688 121.78125 -22.140625 C 122.375 -20.347656 123.785156 -19.453125 126.015625 -19.453125 C 127.523438 -19.453125 128.796875 -20.007812 129.828125 -21.125 C 130.867188 -22.238281 131.804688 -23.351562 132.640625 -24.46875 C 133.472656 -25.582031 134.410156 -26.140625 135.453125 -26.140625 C 136.003906 -26.140625 136.519531 -25.835938 137 -25.234375 C 137.476562 -24.640625 137.71875 -23.664062 137.71875 -22.3125 C 137.71875 -19.6875 137.0625 -16.984375 135.75 -14.203125 C 134.4375 -11.421875 132.582031 -8.816406 130.1875 -6.390625 C 127.800781 -3.960938 124.9375 -1.988281 121.59375 -0.46875 C 118.257812 1.039062 114.523438 1.796875 110.390625 1.796875 C 104.503906 1.796875 99.671875 -0.0078125 95.890625 -3.625 C 92.109375 -7.25 90.21875 -12.722656 90.21875 -20.046875 C 90.21875 -24.023438 90.691406 -28.257812 91.640625 -32.75 C 92.597656 -37.25 93.789062 -41.863281 95.21875 -46.59375 C 96.65625 -51.332031 98.085938 -55.96875 99.515625 -60.5 C 100.953125 -65.039062 102.144531 -69.316406 103.09375 -73.328125 C 104.050781 -77.347656 104.53125 -80.910156 104.53125 -84.015625 C 104.53125 -89.109375 103.65625 -92.96875 101.90625 -95.59375 C 100.15625 -98.21875 97.332031 -99.53125 93.4375 -99.53125 C 90.019531 -99.53125 86.457031 -98.132812 82.75 -95.34375 C 79.050781 -92.5625 75.453125 -88.84375 71.953125 -84.1875 C 68.453125 -79.53125 65.226562 -74.359375 62.28125 -68.671875 C 59.34375 -62.984375 56.816406 -57.15625 54.703125 -51.1875 C 52.597656 -45.226562 51.148438 -39.625 50.359375 -34.375 C 49.804688 -30.707031 49.390625 -27.144531 49.109375 -23.6875 C 48.828125 -20.226562 48.6875 -17.425781 48.6875 -15.28125 C 48.6875 -13.125 48.367188 -10.910156 47.734375 -8.640625 C 47.097656 -6.378906 46.023438 -4.691406 44.515625 -3.578125 C 43.398438 -2.617188 41.546875 -1.78125 38.953125 -1.0625 C 36.367188 -0.351562 33.46875 0.175781 30.25 0.53125 C 27.03125 0.894531 23.828125 1.078125 20.640625 1.078125 C 17.941406 1.078125 16.171875 0.484375 15.328125 -0.703125 C 14.492188 -1.898438 14.078125 -3.21875 14.078125 -4.65625 C 14.078125 -6.488281 14.890625 -10.109375 16.515625 -15.515625 C 18.148438 -20.921875 19.804688 -27.523438 21.484375 -35.328125 C 22.515625 -40.335938 23.585938 -45.601562 24.703125 -51.125 C 25.816406 -56.65625 26.832031 -62.023438 27.75 -67.234375 C 28.664062 -72.453125 29.398438 -77.085938 29.953125 -81.140625 C 30.503906 -85.203125 30.78125 -88.304688 30.78125 -90.453125 C 30.78125 -93.554688 30.222656 -95.722656 29.109375 -96.953125 C 28.003906 -98.191406 26.65625 -99.050781 25.0625 -99.53125 C 24.03125 -99.925781 23.035156 -100.539062 22.078125 -101.375 C 21.117188 -102.207031 20.640625 -103.257812 20.640625 -104.53125 C 20.640625 -106.6875 21.875 -108.71875 24.34375 -110.625 C 26.8125 -112.53125 30.507812 -114.476562 35.4375 -116.46875 C 40.851562 -118.613281 45.070312 -120.101562 48.09375 -120.9375 C 51.113281 -121.78125 53.578125 -122.203125 55.484375 -122.203125 Z M 55.484375 -122.203125 "/></g></g></g><g fill="#000000" fill-opacity="1"><g transform="translate(388.202816, 223.146465)"><g/></g></g><g fill="#000000" fill-opacity="1"><g transform="translate(445.004089, 223.146465)"><g><path d="M 78.640625 -107.40625 C 74.109375 -107.40625 69.8125 -106.171875 65.75 -103.703125 C 61.695312 -101.234375 58.078125 -98.007812 54.890625 -94.03125 C 51.710938 -90.050781 49.226562 -85.753906 47.4375 -81.140625 C 45.644531 -76.535156 44.75 -72.125 44.75 -67.90625 C 44.75 -66.46875 44.945312 -65.332031 45.34375 -64.5 C 45.738281 -63.664062 46.578125 -63.25 47.859375 -63.25 C 50.160156 -63.25 53.203125 -63.566406 56.984375 -64.203125 C 60.765625 -64.835938 64.757812 -65.847656 68.96875 -67.234375 C 73.1875 -68.628906 77.1875 -70.460938 80.96875 -72.734375 C 84.75 -75.003906 87.832031 -77.707031 90.21875 -80.84375 C 92.601562 -83.988281 93.796875 -87.671875 93.796875 -91.890625 C 93.796875 -96.023438 92.5625 -99.644531 90.09375 -102.75 C 87.632812 -105.851562 83.816406 -107.40625 78.640625 -107.40625 Z M 83.53125 -122.796875 C 91.332031 -122.796875 97.9375 -121.484375 103.34375 -118.859375 C 108.75 -116.234375 112.863281 -112.710938 115.6875 -108.296875 C 118.519531 -103.878906 119.9375 -98.925781 119.9375 -93.4375 C 119.9375 -88.34375 118.800781 -83.785156 116.53125 -79.765625 C 114.257812 -75.753906 111.195312 -72.21875 107.34375 -69.15625 C 103.488281 -66.09375 99.132812 -63.445312 94.28125 -61.21875 C 89.425781 -58.988281 84.375 -57.117188 79.125 -55.609375 C 73.875 -54.097656 68.703125 -52.925781 63.609375 -52.09375 C 58.515625 -51.257812 53.820312 -50.679688 49.53125 -50.359375 C 48.332031 -50.273438 47.472656 -49.914062 46.953125 -49.28125 C 46.441406 -48.644531 46.1875 -47.375 46.1875 -45.46875 C 46.1875 -43.320312 46.601562 -40.832031 47.4375 -38 C 48.269531 -35.175781 49.660156 -32.429688 51.609375 -29.765625 C 53.554688 -27.109375 56.222656 -24.90625 59.609375 -23.15625 C 62.992188 -21.40625 67.226562 -20.53125 72.3125 -20.53125 C 77.25 -20.53125 81.644531 -21.304688 85.5 -22.859375 C 89.363281 -24.410156 92.765625 -26.359375 95.703125 -28.703125 C 98.648438 -31.046875 101.238281 -33.46875 103.46875 -35.96875 C 105.695312 -38.476562 107.566406 -40.648438 109.078125 -42.484375 C 109.953125 -43.359375 110.6875 -44.09375 111.28125 -44.6875 C 111.875 -45.289062 112.570312 -45.59375 113.375 -45.59375 C 114.164062 -45.59375 114.816406 -45.253906 115.328125 -44.578125 C 115.847656 -43.898438 116.109375 -42.84375 116.109375 -41.40625 C 116.109375 -38.539062 115.3125 -35.21875 113.71875 -31.4375 C 112.132812 -27.664062 109.8125 -23.789062 106.75 -19.8125 C 103.6875 -15.832031 99.882812 -12.148438 95.34375 -8.765625 C 90.8125 -5.390625 85.601562 -2.644531 79.71875 -0.53125 C 73.832031 1.570312 67.304688 2.625 60.140625 2.625 C 50.359375 2.625 41.96875 0.476562 34.96875 -3.8125 C 27.96875 -8.113281 22.597656 -14.019531 18.859375 -21.53125 C 15.117188 -29.050781 13.25 -37.625 13.25 -47.25 C 13.25 -54.96875 14.398438 -62.503906 16.703125 -69.859375 C 19.015625 -77.222656 22.296875 -84.109375 26.546875 -90.515625 C 30.804688 -96.921875 35.859375 -102.53125 41.703125 -107.34375 C 47.554688 -112.15625 54 -115.929688 61.03125 -118.671875 C 68.070312 -121.421875 75.570312 -122.796875 83.53125 -122.796875 Z M 83.53125 -122.796875 "/></g></g></g><g fill="#000000" fill-opacity="1"><g transform="translate(560.03862, 223.146465)"><g><path d="M 134.484375 -175.421875 C 136.316406 -175.421875 137.75 -174.960938 138.78125 -174.046875 C 139.820312 -173.128906 140.34375 -171.679688 140.34375 -169.703125 C 140.34375 -168.585938 140.039062 -166.097656 139.4375 -162.234375 C 138.84375 -158.378906 138.03125 -153.546875 137 -147.734375 C 135.96875 -141.929688 134.8125 -135.46875 133.53125 -128.34375 C 132.257812 -121.226562 130.945312 -113.789062 129.59375 -106.03125 C 128.238281 -98.269531 126.925781 -90.53125 125.65625 -82.8125 C 124.382812 -75.101562 123.234375 -67.765625 122.203125 -60.796875 C 121.171875 -53.835938 120.351562 -47.550781 119.75 -41.9375 C 119.15625 -36.332031 118.859375 -31.820312 118.859375 -28.40625 C 118.859375 -25.613281 119.316406 -23.421875 120.234375 -21.828125 C 121.148438 -20.242188 122.320312 -19.453125 123.75 -19.453125 C 125.34375 -19.453125 126.65625 -20.007812 127.6875 -21.125 C 128.71875 -22.238281 129.671875 -23.351562 130.546875 -24.46875 C 131.421875 -25.582031 132.378906 -26.140625 133.421875 -26.140625 C 133.816406 -26.140625 134.269531 -25.898438 134.78125 -25.421875 C 135.300781 -24.941406 135.5625 -23.90625 135.5625 -22.3125 C 135.5625 -19.769531 134.960938 -17.101562 133.765625 -14.3125 C 132.578125 -11.53125 130.828125 -8.90625 128.515625 -6.4375 C 126.210938 -3.976562 123.445312 -1.988281 120.21875 -0.46875 C 117 1.039062 113.363281 1.796875 109.3125 1.796875 C 106.050781 1.796875 103.125 1.039062 100.53125 -0.46875 C 97.945312 -1.988281 95.835938 -4.019531 94.203125 -6.5625 C 92.578125 -9.101562 91.566406 -11.890625 91.171875 -14.921875 C 90.929688 -15.867188 90.691406 -16.679688 90.453125 -17.359375 C 90.210938 -18.035156 89.894531 -18.375 89.5 -18.375 C 89.019531 -18.375 88.5 -18.054688 87.9375 -17.421875 C 87.382812 -16.785156 86.550781 -15.867188 85.4375 -14.671875 C 82.8125 -11.890625 79.828125 -9.1875 76.484375 -6.5625 C 73.148438 -3.9375 69.332031 -1.785156 65.03125 -0.109375 C 60.738281 1.554688 55.890625 2.390625 50.484375 2.390625 C 42.609375 2.390625 35.90625 0.460938 30.375 -3.390625 C 24.84375 -7.253906 20.601562 -12.566406 17.65625 -19.328125 C 14.71875 -26.085938 13.25 -33.847656 13.25 -42.609375 C 13.25 -52.234375 14.359375 -61.140625 16.578125 -69.328125 C 18.804688 -77.523438 21.867188 -84.925781 25.765625 -91.53125 C 29.671875 -98.132812 34.171875 -103.757812 39.265625 -108.40625 C 44.359375 -113.0625 49.828125 -116.625 55.671875 -119.09375 C 61.515625 -121.5625 67.421875 -122.796875 73.390625 -122.796875 C 78.085938 -122.796875 82.046875 -122.097656 85.265625 -120.703125 C 88.484375 -119.316406 91.109375 -117.6875 93.140625 -115.8125 C 95.171875 -113.945312 96.722656 -112.316406 97.796875 -110.921875 C 98.867188 -109.523438 99.566406 -108.828125 99.890625 -108.828125 C 100.523438 -108.828125 101.117188 -109.5625 101.671875 -111.03125 C 102.234375 -112.507812 102.75 -114.484375 103.21875 -116.953125 C 103.457031 -118.066406 103.773438 -119.875 104.171875 -122.375 C 104.578125 -124.882812 105.015625 -127.570312 105.484375 -130.4375 C 105.960938 -133.300781 106.359375 -135.90625 106.671875 -138.25 C 106.992188 -140.59375 107.15625 -142.164062 107.15625 -142.96875 C 107.15625 -145.507812 106.597656 -147.472656 105.484375 -148.859375 C 104.378906 -150.253906 102.910156 -151.351562 101.078125 -152.15625 C 100.046875 -152.789062 99.109375 -153.503906 98.265625 -154.296875 C 97.429688 -155.097656 97.015625 -156.054688 97.015625 -157.171875 C 97.015625 -159.628906 98.109375 -161.691406 100.296875 -163.359375 C 102.484375 -165.035156 105.882812 -166.867188 110.5 -168.859375 C 115.75 -171.085938 120.5625 -172.738281 124.9375 -173.8125 C 129.320312 -174.882812 132.503906 -175.421875 134.484375 -175.421875 Z M 78.875 -106.09375 C 74.664062 -106.09375 70.488281 -104.660156 66.34375 -101.796875 C 62.207031 -98.929688 58.445312 -94.890625 55.0625 -89.671875 C 51.6875 -84.460938 48.984375 -78.335938 46.953125 -71.296875 C 44.929688 -64.253906 43.921875 -56.5625 43.921875 -48.21875 C 43.921875 -39.0625 45.609375 -31.738281 48.984375 -26.25 C 52.367188 -20.757812 57.441406 -18.015625 64.203125 -18.015625 C 68.492188 -18.015625 72.609375 -19.40625 76.546875 -22.1875 C 80.492188 -24.976562 84.015625 -28.976562 87.109375 -34.1875 C 90.210938 -39.394531 92.660156 -45.660156 94.453125 -52.984375 C 96.242188 -60.304688 97.140625 -68.5 97.140625 -77.5625 C 97.140625 -84.164062 96.300781 -89.578125 94.625 -93.796875 C 92.957031 -98.015625 90.75 -101.117188 88 -103.109375 C 85.257812 -105.097656 82.21875 -106.09375 78.875 -106.09375 Z M 78.875 -106.09375 "/></g></g></g></g></g><g clip-path="url(#28094faeff)"><g clip-path="url(#0d2fd9daa6)"><g clip-path="url(#703f714ccd)"><g clip-path="url(#e5b7a6e095)"><path fill="#000000" d="M 443.101562 488.542969 L 466.628906 489.574219 C 468.253906 489.726562 469.691406 488.378906 469.839844 486.753906 C 469.988281 485.125 468.644531 483.6875 467.019531 483.535156 L 461.117188 483.480469 L 461.90625 462.378906 L 476.621094 462.921875 C 479.402344 463.015625 481.386719 461.0625 481.476562 458.28125 C 481.566406 455.5 479.617188 453.511719 476.835938 453.417969 L 471.617188 453.097656 L 476.492188 333.875 L 476.449219 330.753906 L 474.824219 330.601562 L 475.046875 328.160156 L 476.675781 328.308594 L 476.957031 327.023438 L 475.332031 326.871094 L 475.273438 325.71875 L 476.898438 325.867188 L 476.914062 323.898438 C 476.914062 323.898438 474.847656 319.605469 468.832031 317.242188 L 468.941406 312.492188 L 470.566406 312.640625 L 470.714844 311.011719 L 469.089844 310.863281 L 469.332031 306.453125 L 468.226562 300.605469 L 468.558594 293.410156 L 464.859375 281.90625 L 463.703125 281.960938 L 466.496094 208.675781 L 464.925781 209.679688 L 462.078125 281.8125 L 460.925781 281.871094 L 456.285156 293.09375 L 455.953125 300.289062 L 454.277344 306.042969 L 454.035156 310.453125 L 452.410156 310.300781 L 452.261719 311.929688 L 453.886719 312.078125 L 453.777344 316.832031 C 447.863281 318.746094 445.179688 322.929688 445.179688 322.929688 L 445.164062 324.898438 L 446.789062 325.046875 L 446.847656 326.203125 L 445.222656 326.050781 L 445.074219 327.679688 L 446.699219 327.828125 L 446.476562 330.273438 L 444.847656 330.121094 L 444.890625 333.242188 L 440.015625 452.46875 L 434.796875 452.148438 C 432.015625 452.054688 430.03125 454.003906 429.941406 456.789062 C 429.847656 459.570312 431.800781 461.554688 434.578125 461.648438 L 449.292969 462.191406 L 448.503906 483.296875 L 442.605469 483.242188 C 440.976562 483.089844 439.542969 484.4375 439.390625 486.0625 C 440.132812 486.953125 441.476562 488.390625 443.101562 488.542969 Z M 443.101562 488.542969 " fill-opacity="1" fill-rule="nonzero"/></g></g></g></g></svg>